<svg xmlns="http://www.w3.org/2000/svg" viewBox="0 0 1200 900" width="1200" height="900">
  <defs>
    <linearGradient id="bg" x1="0%" y1="0%" x2="100%" y2="100%">
      <stop offset="0%" style="stop-color:#070707"/><stop offset="100%" style="stop-color:#0e0e0e"/>
    </linearGradient>
    <linearGradient id="gold" x1="0%" y1="0%" x2="100%" y2="0%">
      <stop offset="0%" style="stop-color:#E4B832"/><stop offset="100%" style="stop-color:#C9A017"/>
    </linearGradient>
    <linearGradient id="cardBg" x1="0%" y1="0%" x2="0%" y2="100%">
      <stop offset="0%" style="stop-color:#141414"/><stop offset="100%" style="stop-color:#0f0f0f"/>
    </linearGradient>
  </defs>

  <rect width="1200" height="900" fill="url(#bg)"/>
  <pattern id="dots" x="0" y="0" width="40" height="40" patternUnits="userSpaceOnUse">
    <circle cx="20" cy="20" r="0.5" fill="#C9A017" opacity="0.07"/>
  </pattern>
  <rect width="1200" height="900" fill="url(#dots)"/>

  <!-- Header -->
  <rect x="0" y="0" width="1200" height="56" fill="#060606"/>
  <rect x="0" y="55" width="1200" height="1" fill="#1e1e1e"/>
  <rect x="40" y="14" width="26" height="26" rx="5" fill="url(#gold)"/>
  <text x="53" y="31" font-family="Arial,sans-serif" font-size="11" font-weight="900" fill="#000" text-anchor="middle">AI</text>
  <text x="78" y="26" font-family="Arial,sans-serif" font-size="12" font-weight="700" fill="#fff">AI FASHION ACADEMY</text>
  <text x="78" y="41" font-family="Arial,sans-serif" font-size="9" fill="#C9A017" letter-spacing="2">BRAND IDENTITY KIT — MODULE 06</text>

  <!-- Title -->
  <text x="600" y="88" font-family="Georgia,serif" font-size="20" font-weight="900" fill="#fff" text-anchor="middle">Brand Identity Kit</text>
  <text x="600" y="108" font-family="Arial,sans-serif" font-size="11" fill="#666" text-anchor="middle">كل ما تحتاجه لهوية بصرية احترافية — مكتملة في يوم واحد</text>
  <rect x="565" y="116" width="70" height="2" rx="1" fill="url(#gold)"/>

  <!-- ── ROW 1 ── -->

  <!-- CARD: Logo Variations -->
  <rect x="40" y="135" width="260" height="220" rx="12" fill="url(#cardBg)" stroke="#2a2a2a" stroke-width="1"/>
  <rect x="40" y="135" width="260" height="3" rx="2 2 0 0" fill="url(#gold)"/>
  <text x="55" y="155" font-family="Arial,sans-serif" font-size="9" fill="#C9A017" font-weight="700" letter-spacing="1">01 · اللوغو</text>
  <text x="55" y="170" font-family="Arial,sans-serif" font-size="11" fill="#fff" font-weight="700">Logo Variations</text>

  <!-- Logo primary -->
  <rect x="60" y="180" width="100" height="70" rx="6" fill="#080808" stroke="#333" stroke-width="1"/>
  <rect x="86" y="198" width="22" height="22" rx="4" fill="url(#gold)"/>
  <text x="97" y="213" font-family="Arial,sans-serif" font-size="9" font-weight="900" fill="#000" text-anchor="middle">AI</text>
  <text x="97" y="234" font-family="Arial,sans-serif" font-size="7" fill="#fff" text-anchor="middle" font-weight="700">BRAND</text>
  <text x="110" y="244" font-family="Arial,sans-serif" font-size="6" fill="#666" text-anchor="middle">Primary</text>

  <!-- Logo reversed -->
  <rect x="172" y="180" width="100" height="70" rx="6" fill="#f0f0f0"/>
  <rect x="198" y="198" width="22" height="22" rx="4" fill="#1a1a1a"/>
  <text x="209" y="213" font-family="Arial,sans-serif" font-size="9" font-weight="900" fill="#C9A017" text-anchor="middle">AI</text>
  <text x="209" y="234" font-family="Arial,sans-serif" font-size="7" fill="#333" text-anchor="middle" font-weight="700">BRAND</text>
  <text x="222" y="244" font-family="Arial,sans-serif" font-size="6" fill="#999" text-anchor="middle">Reversed</text>

  <!-- Logo icon only -->
  <rect x="60" y="262" width="70" height="70" rx="6" fill="#0d0d0d" stroke="#333" stroke-width="1"/>
  <rect x="82" y="281" width="28" height="28" rx="5" fill="url(#gold)"/>
  <text x="96" y="299" font-family="Arial,sans-serif" font-size="12" font-weight="900" fill="#000" text-anchor="middle">AI</text>
  <text x="95" y="328" font-family="Arial,sans-serif" font-size="6" fill="#555" text-anchor="middle">Icon Only</text>

  <!-- Logo horizontal -->
  <rect x="142" y="262" width="130" height="70" rx="6" fill="#080808" stroke="#333" stroke-width="1"/>
  <rect x="152" y="288" width="20" height="20" rx="4" fill="url(#gold)"/>
  <text x="162" y="302" font-family="Arial,sans-serif" font-size="8" font-weight="900" fill="#000" text-anchor="middle">AI</text>
  <text x="192" y="302" font-family="Arial,sans-serif" font-size="10" fill="#fff" font-weight="700">BRAND NAME</text>
  <text x="207" y="328" font-family="Arial,sans-serif" font-size="6" fill="#555" text-anchor="middle">Horizontal</text>

  <!-- CARD: Color Palette -->
  <rect x="320" y="135" width="260" height="220" rx="12" fill="url(#cardBg)" stroke="#2a2a2a" stroke-width="1"/>
  <rect x="320" y="135" width="260" height="3" rx="2 2 0 0" fill="url(#gold)"/>
  <text x="335" y="155" font-family="Arial,sans-serif" font-size="9" fill="#C9A017" font-weight="700" letter-spacing="1">02 · الألوان</text>
  <text x="335" y="170" font-family="Arial,sans-serif" font-size="11" fill="#fff" font-weight="700">Color System</text>

  <!-- Color swatches -->
  <rect x="335" y="182" width="70" height="70" rx="6" fill="#080808" stroke="#333" stroke-width="1"/>
  <text x="370" y="228" font-family="monospace" font-size="8" fill="#888" text-anchor="middle">#080808</text>
  <text x="370" y="240" font-family="Arial,sans-serif" font-size="7" fill="#666" text-anchor="middle">Primary Black</text>
  <text x="370" y="252" font-family="Arial,sans-serif" font-size="7" fill="#555" text-anchor="middle">CMYK 0,0,0,97</text>

  <rect x="415" y="182" width="70" height="70" rx="6" fill="#C9A017"/>
  <text x="450" y="228" font-family="monospace" font-size="8" fill="#000" text-anchor="middle">#C9A017</text>
  <text x="450" y="240" font-family="Arial,sans-serif" font-size="7" fill="#000" text-anchor="middle">Sand Gold</text>
  <text x="450" y="252" font-family="Arial,sans-serif" font-size="7" fill="#4d3d00" text-anchor="middle">RGB 201,160,23</text>

  <rect x="495" y="182" width="70" height="70" rx="6" fill="#1a1a1a" stroke="#333" stroke-width="1"/>
  <text x="530" y="228" font-family="monospace" font-size="8" fill="#888" text-anchor="middle">#1A1A1A</text>
  <text x="530" y="240" font-family="Arial,sans-serif" font-size="7" fill="#666" text-anchor="middle">Charcoal</text>
  <text x="530" y="252" font-family="Arial,sans-serif" font-size="7" fill="#555" text-anchor="middle">Surface Cards</text>

  <rect x="335" y="262" width="70" height="50" rx="5" fill="#C41010"/>
  <text x="370" y="292" font-family="monospace" font-size="8" fill="#fff" text-anchor="middle">#C41010</text>
  <text x="370" y="305" font-family="Arial,sans-serif" font-size="7" fill="#ffaaaa" text-anchor="middle">Red Accent</text>

  <rect x="415" y="262" width="70" height="50" rx="5" fill="#2a2a2a" stroke="#333" stroke-width="1"/>
  <text x="450" y="292" font-family="monospace" font-size="8" fill="#888" text-anchor="middle">#2A2A2A</text>
  <text x="450" y="305" font-family="Arial,sans-serif" font-size="7" fill="#666" text-anchor="middle">Border</text>

  <rect x="495" y="262" width="70" height="50" rx="5" fill="#f0f0f0"/>
  <text x="530" y="292" font-family="monospace" font-size="8" fill="#333" text-anchor="middle">#F0F0F0</text>
  <text x="530" y="305" font-family="Arial,sans-serif" font-size="7" fill="#666" text-anchor="middle">Text Primary</text>

  <!-- CARD: Typography -->
  <rect x="600" y="135" width="260" height="220" rx="12" fill="url(#cardBg)" stroke="#2a2a2a" stroke-width="1"/>
  <rect x="600" y="135" width="260" height="3" rx="2 2 0 0" fill="url(#gold)"/>
  <text x="615" y="155" font-family="Arial,sans-serif" font-size="9" fill="#C9A017" font-weight="700" letter-spacing="1">03 · الخطوط</text>
  <text x="615" y="170" font-family="Arial,sans-serif" font-size="11" fill="#fff" font-weight="700">Typography</text>

  <!-- Font specimens -->
  <text x="615" y="200" font-family="Georgia,serif" font-size="28" font-weight="900" fill="#fff">CAIRO</text>
  <text x="615" y="218" font-family="Arial,sans-serif" font-size="8" fill="#888">ExtraBold 900 — Display &amp; Headers</text>
  <line x1="615" y1="226" x2="840" y2="226" stroke="#2a2a2a" stroke-width="1"/>

  <text x="615" y="248" font-family="Georgia,serif" font-size="20" fill="#ccc">Cairo Bold</text>
  <text x="615" y="262" font-family="Arial,sans-serif" font-size="8" fill="#888">700 — Subheadings</text>
  <line x1="615" y1="270" x2="840" y2="270" stroke="#2a2a2a" stroke-width="1"/>

  <text x="615" y="290" font-family="Arial,sans-serif" font-size="14" fill="#aaa">Cairo Regular body text</text>
  <text x="615" y="304" font-family="Arial,sans-serif" font-size="8" fill="#888">400 — Body &amp; UI Text</text>
  <line x1="615" y1="312" x2="840" y2="312" stroke="#2a2a2a" stroke-width="1"/>

  <text x="615" y="332" font-family="Arial,sans-serif" font-size="11" fill="#666" letter-spacing="3">CAIRO CAPS LABELS</text>
  <text x="615" y="346" font-family="Arial,sans-serif" font-size="8" fill="#555">700 + Letter-spacing 3px — Labels</text>

  <!-- Arabic specimen -->
  <text x="840" y="225" font-family="Arial,sans-serif" font-size="22" fill="#C9A017" text-anchor="end" font-weight="900">براند</text>
  <text x="840" y="255" font-family="Arial,sans-serif" font-size="16" fill="#888" text-anchor="end">أزياء</text>
  <text x="840" y="285" font-family="Arial,sans-serif" font-size="12" fill="#666" text-anchor="end">تصميم</text>

  <!-- CARD: Brand Voice -->
  <rect x="880" y="135" width="280" height="220" rx="12" fill="url(#cardBg)" stroke="#2a2a2a" stroke-width="1"/>
  <rect x="880" y="135" width="280" height="3" rx="2 2 0 0" fill="url(#gold)"/>
  <text x="895" y="155" font-family="Arial,sans-serif" font-size="9" fill="#C9A017" font-weight="700" letter-spacing="1">04 · صوت البراند</text>
  <text x="895" y="170" font-family="Arial,sans-serif" font-size="11" fill="#fff" font-weight="700">Brand Voice</text>

  <!-- Voice attributes -->
  <g font-family="Arial,sans-serif" font-size="10">
    <rect x="895" y="180" width="245" height="30" rx="6" fill="#141414" stroke="#2a2a2a" stroke-width="1"/>
    <text x="918" y="200" fill="#C9A017" font-weight="700">✦</text>
    <text x="932" y="200" fill="#fff">جريء — Bold</text>
    <text x="1000" y="200" fill="#555" font-size="8">ولكن ليس متعجرفاً</text>

    <rect x="895" y="218" width="245" height="30" rx="6" fill="#141414" stroke="#2a2a2a" stroke-width="1"/>
    <text x="918" y="238" fill="#C9A017" font-weight="700">✦</text>
    <text x="932" y="238" fill="#fff">أصيل — Authentic</text>
    <text x="1020" y="238" fill="#555" font-size="8">ليس مصطنعاً</text>

    <rect x="895" y="256" width="245" height="30" rx="6" fill="#141414" stroke="#2a2a2a" stroke-width="1"/>
    <text x="918" y="276" fill="#C9A017" font-weight="700">✦</text>
    <text x="932" y="276" fill="#fff">ذكي — Intelligent</text>
    <text x="1018" y="276" fill="#555" font-size="8">ليس معقداً</text>

    <rect x="895" y="294" width="245" height="30" rx="6" fill="#141414" stroke="#2a2a2a" stroke-width="1"/>
    <text x="918" y="314" fill="#C9A017" font-weight="700">✦</text>
    <text x="932" y="314" fill="#fff">عملي — Practical</text>
    <text x="1016" y="314" fill="#555" font-size="8">ليس نظرياً</text>

    <!-- Tagline -->
    <rect x="895" y="334" width="245" height="14" rx="3" fill="#080808" stroke="#C9A017" stroke-width="0.5"/>
    <text x="1018" y="344" fill="#C9A017" font-size="9" text-anchor="middle" letter-spacing="1">Where Fashion Meets AI</text>
  </g>

  <!-- ── ROW 2 ── -->

  <!-- CARD: Visual Style -->
  <rect x="40" y="376" width="300" height="200" rx="12" fill="url(#cardBg)" stroke="#2a2a2a" stroke-width="1"/>
  <rect x="40" y="376" width="300" height="3" rx="2 2 0 0" fill="url(#gold)"/>
  <text x="55" y="396" font-family="Arial,sans-serif" font-size="9" fill="#C9A017" font-weight="700" letter-spacing="1">05 · الأسلوب البصري</text>
  <text x="55" y="410" font-family="Arial,sans-serif" font-size="11" fill="#fff" font-weight="700">Visual Style Guide</text>

  <!-- Style grid -->
  <rect x="55" y="420" width="130" height="90" rx="6" fill="#0a0a0a" stroke="#1e1e1e" stroke-width="1"/>
  <!-- Dark fashion aesthetic box -->
  <rect x="65" y="430" width="110" height="70" rx="4" fill="#111"/>
  <circle cx="90" cy="455" r="16" fill="#1e1e1e" stroke="#2a2a2a" stroke-width="1"/>
  <rect x="78" y="471" width="24" height="24" rx="2" fill="#1a1a1a"/>
  <text x="120" y="463" font-family="Arial,sans-serif" font-size="7" fill="#C9A017" text-anchor="middle" opacity="0.4">براند</text>
  <text x="95" y="516" font-family="Arial,sans-serif" font-size="7" fill="#666" text-anchor="middle">Dark Fashion</text>

  <rect x="195" y="420" width="130" height="90" rx="6" fill="#f0f0f0"/>
  <!-- Clean editorial box -->
  <rect x="205" y="430" width="110" height="70" rx="4" fill="#e8e8e8"/>
  <rect x="215" y="440" width="90" height="40" rx="2" fill="#fff" stroke="#ddd" stroke-width="0.5"/>
  <rect x="215" y="486" width="60" height="4" rx="2" fill="#333"/>
  <rect x="215" y="494" width="40" height="3" rx="2" fill="#999"/>
  <text x="260" y="516" font-family="Arial,sans-serif" font-size="7" fill="#666" text-anchor="middle">Clean Minimal</text>

  <text x="55" y="540" font-family="Arial,sans-serif" font-size="9" fill="#888">Lighting: Rembrandt + Gold Rim</text>
  <text x="55" y="554" font-family="Arial,sans-serif" font-size="9" fill="#888">Mood: Cinematic &amp; Editorial</text>
  <text x="55" y="568" font-family="Arial,sans-serif" font-size="9" fill="#888">Texture: Grain overlay + Fabric</text>

  <!-- CARD: Touchpoints -->
  <rect x="360" y="376" width="260" height="200" rx="12" fill="url(#cardBg)" stroke="#2a2a2a" stroke-width="1"/>
  <rect x="360" y="376" width="260" height="3" rx="2 2 0 0" fill="url(#gold)"/>
  <text x="375" y="396" font-family="Arial,sans-serif" font-size="9" fill="#C9A017" font-weight="700" letter-spacing="1">06 · تطبيقات الهوية</text>
  <text x="375" y="410" font-family="Arial,sans-serif" font-size="11" fill="#fff" font-weight="700">Brand Touchpoints</text>

  <!-- Touchpoint items -->
  <g font-family="Arial,sans-serif" font-size="9">
    <rect x="375" y="420" width="228" height="26" rx="5" fill="#141414" stroke="#2a2a2a" stroke-width="1"/>
    <text x="395" y="436" fill="#C9A017">📱</text>
    <text x="415" y="436" fill="#aaa">Instagram Profile + Highlights</text>

    <rect x="375" y="452" width="228" height="26" rx="5" fill="#141414" stroke="#2a2a2a" stroke-width="1"/>
    <text x="395" y="468" fill="#C9A017">🏷️</text>
    <text x="415" y="468" fill="#aaa">Clothing Tags + Labels</text>

    <rect x="375" y="484" width="228" height="26" rx="5" fill="#141414" stroke="#2a2a2a" stroke-width="1"/>
    <text x="395" y="500" fill="#C9A017">📦</text>
    <text x="415" y="500" fill="#aaa">Packaging + Tissue Paper</text>

    <rect x="375" y="516" width="228" height="26" rx="5" fill="#141414" stroke="#2a2a2a" stroke-width="1"/>
    <text x="395" y="532" fill="#C9A017">🌐</text>
    <text x="415" y="532" fill="#aaa">Shopify Store + Products</text>

    <rect x="375" y="548" width="228" height="22" rx="5" fill="#141414" stroke="#2a2a2a" stroke-width="1"/>
    <text x="395" y="562" fill="#C9A017">📧</text>
    <text x="415" y="562" fill="#aaa">Email Templates + Invoices</text>
  </g>

  <!-- CARD: Brand Checklist -->
  <rect x="640" y="376" width="520" height="200" rx="12" fill="url(#cardBg)" stroke="#2a2a2a" stroke-width="1"/>
  <rect x="640" y="376" width="520" height="3" rx="2 2 0 0" fill="url(#gold)"/>
  <text x="655" y="396" font-family="Arial,sans-serif" font-size="9" fill="#C9A017" font-weight="700" letter-spacing="1">07 · قائمة مراجعة الهوية</text>
  <text x="655" y="410" font-family="Arial,sans-serif" font-size="11" fill="#fff" font-weight="700">Brand Identity Checklist</text>

  <!-- Checklist items - 2 columns -->
  <g font-family="Arial,sans-serif" font-size="9">
    <!-- Col 1 -->
    <rect x="655" y="422" width="12" height="12" rx="3" fill="#C9A017"/>
    <text x="661" y="431" fill="#000" font-size="8" text-anchor="middle" font-weight="900">✓</text>
    <text x="674" y="432" fill="#888">اختيار الاسم + التحقق</text>

    <rect x="655" y="440" width="12" height="12" rx="3" fill="#C9A017"/>
    <text x="661" y="449" fill="#000" font-size="8" text-anchor="middle" font-weight="900">✓</text>
    <text x="674" y="450" fill="#888">كتابة الـ Tagline</text>

    <rect x="655" y="458" width="12" height="12" rx="3" fill="#C9A017"/>
    <text x="661" y="467" fill="#000" font-size="8" text-anchor="middle" font-weight="900">✓</text>
    <text x="674" y="468" fill="#888">Moodboard رقمي</text>

    <rect x="655" y="476" width="12" height="12" rx="3" fill="#C9A017"/>
    <text x="661" y="485" fill="#000" font-size="8" text-anchor="middle" font-weight="900">✓</text>
    <text x="674" y="486" fill="#888">لوغو (4 صيغ)</text>

    <rect x="655" y="494" width="12" height="12" rx="3" fill="#C9A017"/>
    <text x="661" y="503" fill="#000" font-size="8" text-anchor="middle" font-weight="900">✓</text>
    <text x="674" y="504" fill="#888">لوحة الألوان (Hex + RGB)</text>

    <rect x="655" y="512" width="12" height="12" rx="3" fill="#C9A017"/>
    <text x="661" y="521" fill="#000" font-size="8" text-anchor="middle" font-weight="900">✓</text>
    <text x="674" y="522" fill="#888">الخطوط المختارة</text>

    <!-- Col 2 -->
    <rect x="880" y="422" width="12" height="12" rx="3" fill="#C9A017"/>
    <text x="886" y="431" fill="#000" font-size="8" text-anchor="middle" font-weight="900">✓</text>
    <text x="899" y="432" fill="#888">Brand Guidelines PDF</text>

    <rect x="880" y="440" width="12" height="12" rx="3" fill="#C9A017"/>
    <text x="886" y="449" fill="#000" font-size="8" text-anchor="middle" font-weight="900">✓</text>
    <text x="899" y="450" fill="#888">Brand Kit في Canva</text>

    <rect x="880" y="458" width="12" height="12" rx="3" fill="#C9A017"/>
    <text x="886" y="467" fill="#000" font-size="8" text-anchor="middle" font-weight="900">✓</text>
    <text x="899" y="468" fill="#888">قصة البراند مكتوبة</text>

    <rect x="880" y="476" width="12" height="12" rx="3" fill="#1e1e1e" stroke="#333" stroke-width="1"/>
    <text x="899" y="486" fill="#555">Voice &amp; Tone Guide</text>

    <rect x="880" y="494" width="12" height="12" rx="3" fill="#1e1e1e" stroke="#333" stroke-width="1"/>
    <text x="899" y="504" fill="#555">Photography Style Guide</text>

    <rect x="880" y="512" width="12" height="12" rx="3" fill="#1e1e1e" stroke="#333" stroke-width="1"/>
    <text x="899" y="522" fill="#555">Social Media Templates</text>
  </g>

  <text x="655" y="560" font-family="Arial,sans-serif" font-size="9" fill="#C9A017">6/12 مكتمل</text>
  <rect x="655" y="565" width="490" height="4" rx="2" fill="#1e1e1e"/>
  <rect x="655" y="565" width="245" height="4" rx="2" fill="url(#gold)"/>

  <!-- ── ROW 3: Brand Outputs ── -->
  <rect x="40" y="596" width="1120" height="120" rx="12" fill="#0d0d0d" stroke="#1e1e1e" stroke-width="1"/>
  <rect x="40" y="596" width="1120" height="3" rx="2 2 0 0" fill="url(#gold)"/>
  <text x="600" y="618" font-family="Arial,sans-serif" font-size="9" fill="#C9A017" text-anchor="middle" font-weight="700" letter-spacing="2">مخرجات الوحدة 6 — ما تحصل عليه عند الإكمال</text>

  <!-- Output items -->
  <g font-family="Arial,sans-serif">
    <rect x="65" y="628" width="140" height="70" rx="8" fill="#141414" stroke="#2a2a2a" stroke-width="1"/>
    <text x="135" y="650" font-size="22" text-anchor="middle">🎨</text>
    <text x="135" y="670" font-size="9" fill="#fff" text-anchor="middle" font-weight="700">لوغو كامل</text>
    <text x="135" y="683" font-size="8" fill="#666" text-anchor="middle">PNG + SVG + PDF</text>

    <rect x="220" y="628" width="140" height="70" rx="8" fill="#141414" stroke="#2a2a2a" stroke-width="1"/>
    <text x="290" y="650" font-size="22" text-anchor="middle">🎨</text>
    <text x="290" y="670" font-size="9" fill="#fff" text-anchor="middle" font-weight="700">Brand Kit Canva</text>
    <text x="290" y="683" font-size="8" fill="#666" text-anchor="middle">جاهز للاستخدام</text>

    <rect x="375" y="628" width="140" height="70" rx="8" fill="#141414" stroke="#2a2a2a" stroke-width="1"/>
    <text x="445" y="650" font-size="22" text-anchor="middle">📋</text>
    <text x="445" y="670" font-size="9" fill="#fff" text-anchor="middle" font-weight="700">Brand Guidelines</text>
    <text x="445" y="683" font-size="8" fill="#666" text-anchor="middle">10 صفحات PDF</text>

    <rect x="530" y="628" width="140" height="70" rx="8" fill="#141414" stroke="#2a2a2a" stroke-width="1"/>
    <text x="600" y="650" font-size="22" text-anchor="middle">🖼️</text>
    <text x="600" y="670" font-size="9" fill="#fff" text-anchor="middle" font-weight="700">Moodboard</text>
    <text x="600" y="683" font-size="8" fill="#666" text-anchor="middle">بصري + مرجع</text>

    <rect x="685" y="628" width="140" height="70" rx="8" fill="#141414" stroke="#2a2a2a" stroke-width="1"/>
    <text x="755" y="650" font-size="22" text-anchor="middle">🎯</text>
    <text x="755" y="670" font-size="9" fill="#fff" text-anchor="middle" font-weight="700">لوحة الألوان</text>
    <text x="755" y="683" font-size="8" fill="#666" text-anchor="middle">Hex + RGB + CMYK</text>

    <rect x="840" y="628" width="140" height="70" rx="8" fill="#141414" stroke="#2a2a2a" stroke-width="1"/>
    <text x="910" y="650" font-size="22" text-anchor="middle">✍️</text>
    <text x="910" y="670" font-size="9" fill="#fff" text-anchor="middle" font-weight="700">قصة البراند</text>
    <text x="910" y="683" font-size="8" fill="#666" text-anchor="middle">3 نسخ جاهزة</text>

    <rect x="995" y="628" width="150" height="70" rx="8" fill="rgba(201,160,23,0.08)" stroke="#C9A017" stroke-width="1"/>
    <text x="1070" y="650" font-size="22" text-anchor="middle">🏅</text>
    <text x="1070" y="670" font-size="9" fill="#C9A017" text-anchor="middle" font-weight="700">شارة الإنجاز</text>
    <text x="1070" y="683" font-size="8" fill="#888" text-anchor="middle">Visual Architect 🏅</text>
  </g>

  <!-- Footer -->
  <rect x="0" y="880" width="1200" height="20" fill="#050505"/>
  <text x="40" y="894" font-family="Arial,sans-serif" font-size="8" fill="#333">AI Fashion Academy — Brand Identity Kit · Module 06</text>
  <text x="1160" y="894" font-family="Arial,sans-serif" font-size="8" fill="#C9A017" text-anchor="end">© 2025</text>
</svg>
