<svg xmlns="http://www.w3.org/2000/svg" viewBox="0 0 1200 800" width="1200" height="800">
  <defs>
    <linearGradient id="bg" x1="0%" y1="0%" x2="100%" y2="100%">
      <stop offset="0%" style="stop-color:#080808"/>
      <stop offset="100%" style="stop-color:#141414"/>
    </linearGradient>
    <linearGradient id="gold" x1="0%" y1="0%" x2="100%" y2="100%">
      <stop offset="0%" style="stop-color:#E4B832"/>
      <stop offset="100%" style="stop-color:#C9A017"/>
    </linearGradient>
    <linearGradient id="goldV" x1="0%" y1="0%" x2="0%" y2="100%">
      <stop offset="0%" style="stop-color:#C9A017;stop-opacity:0.15"/>
      <stop offset="100%" style="stop-color:#C9A017;stop-opacity:0"/>
    </linearGradient>
    <linearGradient id="cardGrad1" x1="0%" y1="0%" x2="0%" y2="100%">
      <stop offset="0%" style="stop-color:#1a1a1a"/>
      <stop offset="100%" style="stop-color:#111111"/>
    </linearGradient>
    <linearGradient id="redAccent" x1="0%" y1="0%" x2="100%" y2="0%">
      <stop offset="0%" style="stop-color:#C41010;stop-opacity:0.8"/>
      <stop offset="100%" style="stop-color:#C41010;stop-opacity:0"/>
    </linearGradient>
    <filter id="glow">
      <feGaussianBlur stdDeviation="3" result="coloredBlur"/>
      <feMerge><feMergeNode in="coloredBlur"/><feMergeNode in="SourceGraphic"/></feMerge>
    </filter>
    <filter id="softGlow">
      <feGaussianBlur stdDeviation="8" result="coloredBlur"/>
      <feMerge><feMergeNode in="coloredBlur"/><feMergeNode in="SourceGraphic"/></feMerge>
    </filter>
    <clipPath id="card1clip"><rect x="40" y="80" width="340" height="460" rx="12"/></clipPath>
    <clipPath id="card2clip"><rect x="400" y="80" width="220" height="220" rx="12"/></clipPath>
    <clipPath id="card3clip"><rect x="400" y="320" width="220" height="220" rx="12"/></clipPath>
    <clipPath id="card4clip"><rect x="640" y="80" width="240" height="320" rx="12"/></clipPath>
    <clipPath id="card5clip"><rect x="900" y="80" width="260" height="220" rx="12"/></clipPath>
    <clipPath id="card6clip"><rect x="640" y="420" width="520" height="120" rx="12"/></clipPath>
  </defs>

  <!-- Background -->
  <rect width="1200" height="800" fill="url(#bg)"/>

  <!-- Subtle grid pattern -->
  <g opacity="0.03">
    <line x1="0" y1="100" x2="1200" y2="100" stroke="#C9A017" stroke-width="0.5"/>
    <line x1="0" y1="200" x2="1200" y2="200" stroke="#C9A017" stroke-width="0.5"/>
    <line x1="0" y1="300" x2="1200" y2="300" stroke="#C9A017" stroke-width="0.5"/>
    <line x1="0" y1="400" x2="1200" y2="400" stroke="#C9A017" stroke-width="0.5"/>
    <line x1="0" y1="500" x2="1200" y2="500" stroke="#C9A017" stroke-width="0.5"/>
    <line x1="0" y1="600" x2="1200" y2="600" stroke="#C9A017" stroke-width="0.5"/>
    <line x1="0" y1="700" x2="1200" y2="700" stroke="#C9A017" stroke-width="0.5"/>
    <line x1="100" y1="0" x2="100" y2="800" stroke="#C9A017" stroke-width="0.5"/>
    <line x1="300" y1="0" x2="300" y2="800" stroke="#C9A017" stroke-width="0.5"/>
    <line x1="500" y1="0" x2="500" y2="800" stroke="#C9A017" stroke-width="0.5"/>
    <line x1="700" y1="0" x2="700" y2="800" stroke="#C9A017" stroke-width="0.5"/>
    <line x1="900" y1="0" x2="900" y2="800" stroke="#C9A017" stroke-width="0.5"/>
    <line x1="1100" y1="0" x2="1100" y2="800" stroke="#C9A017" stroke-width="0.5"/>
  </g>

  <!-- Gold ambient glow top-right -->
  <circle cx="1100" cy="100" r="200" fill="#C9A017" opacity="0.04"/>

  <!-- HEADER BAR -->
  <rect x="0" y="0" width="1200" height="56" fill="#0d0d0d"/>
  <rect x="0" y="55" width="1200" height="1" fill="#2a2a2a"/>
  <!-- Logo mark -->
  <rect x="40" y="12" width="32" height="32" rx="6" fill="url(#gold)"/>
  <text x="56" y="33" font-family="Georgia,serif" font-size="14" font-weight="900" fill="#000" text-anchor="middle">AI</text>
  <text x="82" y="28" font-family="Arial,sans-serif" font-size="11" font-weight="700" fill="#fff">AI FASHION ACADEMY</text>
  <text x="82" y="42" font-family="Arial,sans-serif" font-size="9" fill="#C9A017" letter-spacing="2">WHERE FASHION MEETS AI</text>
  <!-- Tag -->
  <rect x="1040" y="16" width="120" height="24" rx="4" fill="none" stroke="#C9A017" stroke-width="1" opacity="0.6"/>
  <text x="1100" y="33" font-family="Arial,sans-serif" font-size="10" font-weight="700" fill="#C9A017" text-anchor="middle">BRAND MOODBOARD</text>

  <!-- CARD 1 — Large hero fashion visual -->
  <rect x="40" y="80" width="340" height="460" rx="12" fill="url(#cardGrad1)" stroke="#2a2a2a" stroke-width="1"/>
  <!-- Fashion silhouette illustration -->
  <rect x="40" y="80" width="340" height="460" rx="12" fill="#0f0f0f"/>
  <!-- Abstract fashion figure -->
  <ellipse cx="210" cy="200" rx="45" ry="55" fill="#1a1a1a" stroke="#2a2a2a" stroke-width="1"/>
  <rect x="175" y="255" width="70" height="180" rx="5" fill="#161616" stroke="#2a2a2a" stroke-width="1"/>
  <!-- Hoodie details -->
  <path d="M175 270 Q210 260 245 270 L250 320 Q210 310 170 320 Z" fill="#1e1e1e"/>
  <line x1="210" y1="260" x2="210" y2="320" stroke="#C9A017" stroke-width="0.5" opacity="0.4"/>
  <!-- Gold accent line on clothing -->
  <rect x="185" y="280" width="50" height="2" rx="1" fill="url(#gold)" opacity="0.6"/>
  <!-- Arabic text on hoodie -->
  <text x="210" y="300" font-family="Arial,sans-serif" font-size="11" fill="#C9A017" text-anchor="middle" opacity="0.5">براند</text>
  <!-- Bottom label -->
  <rect x="40" y="480" width="340" height="60" rx="0 0 12 12" fill="#0a0a0a"/>
  <rect x="40" y="480" width="340" height="1" fill="#2a2a2a"/>
  <text x="60" y="503" font-family="Arial,sans-serif" font-size="10" fill="#C9A017" font-weight="700">HERO AESTHETIC</text>
  <text x="60" y="523" font-family="Arial,sans-serif" font-size="12" fill="#888">Dark Luxury Streetwear</text>
  <!-- Gold ambient on figure -->
  <circle cx="210" cy="300" r="120" fill="#C9A017" opacity="0.02"/>

  <!-- Color palette strip on card 1 -->
  <rect x="55" y="460" width="24" height="10" rx="2" fill="#080808"/>
  <rect x="83" y="460" width="24" height="10" rx="2" fill="#C9A017"/>
  <rect x="111" y="460" width="24" height="10" rx="2" fill="#1a1a1a"/>
  <rect x="139" y="460" width="24" height="10" rx="2" fill="#C41010"/>
  <rect x="167" y="460" width="24" height="10" rx="2" fill="#f0f0f0"/>

  <!-- CARD 2 — Color palette block -->
  <rect x="400" y="80" width="220" height="220" rx="12" fill="#0f0f0f" stroke="#2a2a2a" stroke-width="1"/>
  <text x="420" y="110" font-family="Arial,sans-serif" font-size="9" fill="#C9A017" font-weight="700" letter-spacing="2">COLOR PALETTE</text>
  <!-- Color swatches big -->
  <rect x="420" y="122" width="80" height="80" rx="8" fill="#080808" stroke="#333" stroke-width="1"/>
  <text x="460" y="168" font-family="Arial,sans-serif" font-size="8" fill="#666" text-anchor="middle">#080808</text>
  <text x="460" y="178" font-family="Arial,sans-serif" font-size="7" fill="#555" text-anchor="middle">Abyss Black</text>

  <rect x="510" y="122" width="80" height="80" rx="8" fill="#C9A017"/>
  <text x="550" y="168" font-family="Arial,sans-serif" font-size="8" fill="#000" text-anchor="middle">#C9A017</text>
  <text x="550" y="178" font-family="Arial,sans-serif" font-size="7" fill="#000" text-anchor="middle">Sand Gold</text>

  <rect x="420" y="212" width="50" height="50" rx="6" fill="#1a1a1a" stroke="#333" stroke-width="1"/>
  <text x="445" y="252" font-family="Arial,sans-serif" font-size="7" fill="#666" text-anchor="middle">Charcoal</text>

  <rect x="478" y="212" width="50" height="50" rx="6" fill="#C41010"/>
  <text x="503" y="252" font-family="Arial,sans-serif" font-size="7" fill="#fff" text-anchor="middle">Red Accent</text>

  <rect x="536" y="212" width="50" height="50" rx="6" fill="#2a2a2a" stroke="#333" stroke-width="1"/>
  <text x="561" y="252" font-family="Arial,sans-serif" font-size="7" fill="#666" text-anchor="middle">Border</text>

  <text x="420" y="288" font-family="Arial,sans-serif" font-size="9" fill="#888">Typography: Cairo ExtraBold</text>

  <!-- CARD 3 — Typography showcase -->
  <rect x="400" y="320" width="220" height="220" rx="12" fill="#0d0d0d" stroke="#2a2a2a" stroke-width="1"/>
  <text x="420" y="350" font-family="Arial,sans-serif" font-size="9" fill="#C9A017" font-weight="700" letter-spacing="2">TYPOGRAPHY</text>
  <text x="420" y="385" font-family="Georgia,serif" font-size="28" font-weight="900" fill="#fff">BRAND</text>
  <text x="420" y="415" font-family="Georgia,serif" font-size="28" font-weight="900" fill="url(#gold)">STORY</text>
  <line x1="420" y1="425" x2="590" y2="425" stroke="#C9A017" stroke-width="1" opacity="0.3"/>
  <text x="420" y="445" font-family="Arial,sans-serif" font-size="11" fill="#888">Cairo Bold — Headings</text>
  <text x="420" y="460" font-family="Arial,sans-serif" font-size="9" fill="#666">Cairo Regular — Body text</text>
  <text x="420" y="478" font-family="Arial,sans-serif" font-size="9" fill="#C9A017" letter-spacing="3">CAIRO CAPS — LABELS</text>
  <text x="420" y="498" font-family="Georgia,serif" font-size="18" fill="#444">براند</text>
  <text x="460" y="498" font-family="Arial,sans-serif" font-size="9" fill="#555"> — Arabic Display</text>
  <text x="420" y="522" font-family="Arial,sans-serif" font-size="8" fill="#444">AI FASHION ACADEMY © 2025</text>

  <!-- CARD 4 — Pattern & texture -->
  <rect x="640" y="80" width="240" height="320" rx="12" fill="#0a0a0a" stroke="#2a2a2a" stroke-width="1"/>
  <text x="660" y="112" font-family="Arial,sans-serif" font-size="9" fill="#C9A017" font-weight="700" letter-spacing="2">PATTERN LANGUAGE</text>
  <!-- Geometric Arabic-inspired pattern -->
  <g opacity="0.15" transform="translate(640,80)">
    <g fill="none" stroke="#C9A017" stroke-width="0.5">
      <!-- Repeating geometric motif -->
      <polygon points="80,60 100,40 120,60 100,80" />
      <polygon points="120,60 140,40 160,60 140,80" />
      <polygon points="160,60 180,40 200,60 180,80" />
      <polygon points="100,80 120,60 140,80 120,100" />
      <polygon points="140,80 160,60 180,80 160,100" />
      <polygon points="80,100 100,80 120,100 100,120" />
      <polygon points="120,100 140,80 160,100 140,120" />
      <polygon points="160,100 180,80 200,100 180,120" />
      <polygon points="100,120 120,100 140,120 120,140" />
      <polygon points="140,120 160,100 180,120 160,140" />
      <polygon points="80,140 100,120 120,140 100,160" />
      <polygon points="120,140 140,120 160,140 140,160" />
      <polygon points="160,140 180,120 200,140 180,160" />
      <polygon points="100,160 120,140 140,160 120,180" />
      <polygon points="140,160 160,140 180,160 160,180" />
    </g>
  </g>
  <!-- Pattern label -->
  <text x="660" y="250" font-family="Arial,sans-serif" font-size="10" fill="#888">Arabesque Geometry</text>
  <text x="660" y="265" font-family="Arial,sans-serif" font-size="9" fill="#555">Heritage meets Modern AI</text>
  <!-- Texture swatches -->
  <rect x="660" y="285" width="60" height="35" rx="4" fill="#1a1a1a" stroke="#333" stroke-width="1"/>
  <text x="690" y="307" font-family="Arial,sans-serif" font-size="7" fill="#666" text-anchor="middle">Fabric Grain</text>
  <rect x="728" y="285" width="60" height="35" rx="4" fill="#141414" stroke="#C9A017" stroke-width="0.5" stroke-dasharray="3,2"/>
  <text x="758" y="307" font-family="Arial,sans-serif" font-size="7" fill="#C9A017" text-anchor="middle">Gold Thread</text>
  <rect x="796" y="285" width="60" height="35" rx="4" fill="#0d0d0d" stroke="#333" stroke-width="1"/>
  <text x="826" y="307" font-family="Arial,sans-serif" font-size="7" fill="#666" text-anchor="middle">Dark Canvas</text>
  <!-- Style words -->
  <text x="660" y="345" font-family="Arial,sans-serif" font-size="22" font-weight="900" fill="#fff" opacity="0.06">MINIMAL</text>
  <text x="660" y="375" font-family="Arial,sans-serif" font-size="18" font-weight="900" fill="#C9A017" opacity="0.15">EDITORIAL</text>

  <!-- CARD 5 — Mood words / atmosphere -->
  <rect x="900" y="80" width="260" height="220" rx="12" fill="#0d0d0d" stroke="#2a2a2a" stroke-width="1"/>
  <text x="920" y="112" font-family="Arial,sans-serif" font-size="9" fill="#C9A017" font-weight="700" letter-spacing="2">BRAND ATMOSPHERE</text>
  <!-- Mood words -->
  <text x="920" y="148" font-family="Georgia,serif" font-size="20" fill="#fff" font-weight="900">BOLD.</text>
  <text x="920" y="175" font-family="Georgia,serif" font-size="20" fill="#C9A017" font-weight="900">AUTHENTIC.</text>
  <text x="920" y="202" font-family="Georgia,serif" font-size="20" fill="#444" font-weight="900">CULTURAL.</text>
  <text x="920" y="229" font-family="Georgia,serif" font-size="20" fill="#333" font-weight="900">INTELLIGENT.</text>
  <!-- Accent line -->
  <rect x="920" y="240" width="40" height="2" rx="1" fill="url(#gold)"/>
  <text x="920" y="265" font-family="Arial,sans-serif" font-size="9" fill="#666">Where heritage meets technology</text>
  <text x="920" y="280" font-family="Arial,sans-serif" font-size="9" fill="#555">الأصالة تلتقي بالتقنية</text>

  <!-- CARD 6 — Color/aesthetic reference strip -->
  <rect x="900" y="320" width="260" height="220" rx="12" fill="#0d0d0d" stroke="#2a2a2a" stroke-width="1"/>
  <text x="920" y="350" font-family="Arial,sans-serif" font-size="9" fill="#C9A017" font-weight="700" letter-spacing="2">VISUAL REFERENCES</text>
  <!-- Reference blocks -->
  <rect x="920" y="362" width="70" height="70" rx="6" fill="#0a0a0a" stroke="#333" stroke-width="1"/>
  <text x="955" y="398" font-family="Arial,sans-serif" font-size="7" fill="#888" text-anchor="middle">Dark</text>
  <text x="955" y="410" font-family="Arial,sans-serif" font-size="7" fill="#888" text-anchor="middle">Editorial</text>
  <rect x="1000" y="362" width="70" height="70" rx="6" fill="#C9A017" opacity="0.8"/>
  <text x="1035" y="398" font-family="Arial,sans-serif" font-size="7" fill="#000" text-anchor="middle">Gold</text>
  <text x="1035" y="410" font-family="Arial,sans-serif" font-size="7" fill="#000" text-anchor="middle">Luxury</text>
  <rect x="1080" y="362" width="60" height="70" rx="6" fill="#1a1a1a" stroke="#C41010" stroke-width="1"/>
  <text x="1110" y="398" font-family="Arial,sans-serif" font-size="7" fill="#C41010" text-anchor="middle">Red</text>
  <text x="1110" y="410" font-family="Arial,sans-serif" font-size="7" fill="#C41010" text-anchor="middle">Accent</text>
  <!-- Inspiration labels -->
  <text x="920" y="452" font-family="Arial,sans-serif" font-size="9" fill="#555">Inspired by:</text>
  <text x="920" y="468" font-family="Arial,sans-serif" font-size="10" fill="#888">A-COLD-WALL · Rick Owens</text>
  <text x="920" y="484" font-family="Arial,sans-serif" font-size="10" fill="#888">Supreme · Off-White</text>
  <text x="920" y="500" font-family="Arial,sans-serif" font-size="10" fill="#C9A017">+ Arabic Heritage Design</text>
  <text x="920" y="520" font-family="Arial,sans-serif" font-size="9" fill="#444">Premium startup meets ancient craft</text>

  <!-- Bottom wide card — AI tools strip -->
  <rect x="40" y="560" width="1120" height="100" rx="12" fill="#0d0d0d" stroke="#2a2a2a" stroke-width="1"/>
  <rect x="40" y="560" width="3" height="100" rx="2 0 0 2" fill="url(#gold)"/>
  <text x="68" y="588" font-family="Arial,sans-serif" font-size="9" fill="#C9A017" font-weight="700" letter-spacing="2">AI TOOL STACK</text>
  <!-- Tools -->
  <g font-family="Arial,sans-serif" font-size="10">
    <rect x="68" y="598" width="100" height="40" rx="6" fill="#141414" stroke="#2a2a2a" stroke-width="1"/>
    <circle cx="88" cy="615" r="5" fill="#10b981"/>
    <text x="98" y="613" fill="#fff" font-weight="700">Midjourney</text>
    <text x="98" y="627" fill="#666" font-size="8">Visual Design</text>

    <rect x="178" y="598" width="100" height="40" rx="6" fill="#141414" stroke="#2a2a2a" stroke-width="1"/>
    <circle cx="198" cy="615" r="5" fill="#f59e0b"/>
    <text x="208" y="613" fill="#fff" font-weight="700">ChatGPT</text>
    <text x="208" y="627" fill="#666" font-size="8">Strategy + Copy</text>

    <rect x="288" y="598" width="100" height="40" rx="6" fill="#141414" stroke="#2a2a2a" stroke-width="1"/>
    <circle cx="308" cy="615" r="5" fill="#8b5cf6"/>
    <text x="318" y="613" fill="#fff" font-weight="700">Claude</text>
    <text x="318" y="627" fill="#666" font-size="8">Deep Strategy</text>

    <rect x="398" y="598" width="100" height="40" rx="6" fill="#141414" stroke="#2a2a2a" stroke-width="1"/>
    <circle cx="418" cy="615" r="5" fill="#ef4444"/>
    <text x="428" y="613" fill="#fff" font-weight="700">Runway</text>
    <text x="428" y="627" fill="#666" font-size="8">Visual AI</text>

    <rect x="508" y="598" width="100" height="40" rx="6" fill="#141414" stroke="#2a2a2a" stroke-width="1"/>
    <circle cx="528" cy="615" r="5" fill="#06b6d4"/>
    <text x="538" y="613" fill="#fff" font-weight="700">Kling AI</text>
    <text x="538" y="627" fill="#666" font-size="8">Fashion Film</text>

    <rect x="618" y="598" width="100" height="40" rx="6" fill="#141414" stroke="#2a2a2a" stroke-width="1"/>
    <circle cx="638" cy="615" r="5" fill="#ec4899"/>
    <text x="648" y="613" fill="#fff" font-weight="700">Canva Pro</text>
    <text x="648" y="627" fill="#666" font-size="8">Design Suite</text>

    <rect x="728" y="598" width="100" height="40" rx="6" fill="#141414" stroke="#2a2a2a" stroke-width="1"/>
    <circle cx="748" cy="615" r="5" fill="#22c55e"/>
    <text x="758" y="613" fill="#fff" font-weight="700">Shopify</text>
    <text x="758" y="627" fill="#666" font-size="8">Store Platform</text>

    <rect x="838" y="598" width="100" height="40" rx="6" fill="#141414" stroke="#2a2a2a" stroke-width="1"/>
    <circle cx="858" cy="615" r="5" fill="#f97316"/>
    <text x="868" y="613" fill="#fff" font-weight="700">CapCut</text>
    <text x="868" y="627" fill="#666" font-size="8">Visual Edit</text>

    <rect x="948" y="598" width="100" height="40" rx="6" fill="#141414" stroke="#2a2a2a" stroke-width="1"/>
    <circle cx="968" cy="615" r="5" fill="#a855f7"/>
    <text x="978" y="613" fill="#fff" font-weight="700">HeyGen</text>
    <text x="978" y="627" fill="#666" font-size="8">AI Avatar</text>

    <rect x="1058" y="598" width="90" height="40" rx="6" fill="#141414" stroke="#C9A017" stroke-width="1" opacity="0.6"/>
    <text x="1103" y="622" fill="#C9A017" font-size="9" text-anchor="middle">+ More</text>
  </g>

  <!-- Bottom footer bar -->
  <rect x="0" y="770" width="1200" height="30" fill="#0a0a0a"/>
  <text x="40" y="790" font-family="Arial,sans-serif" font-size="9" fill="#444">AI Fashion Academy — Brand Moodboard v1.0 — Where Fashion Meets AI</text>
  <text x="1160" y="790" font-family="Arial,sans-serif" font-size="9" fill="#C9A017" text-anchor="end">© 2025</text>
</svg>
